<mxfile host="app.diagrams.net" agent="Mozilla/5.0 (Windows NT 10.0; Win64; x64; rv:137.0) Gecko/20100101 Firefox/137.0" version="26.2.5">
  <diagram id="C5RBs43oDa-KdzZeNtuy" name="Page-1">
    <mxGraphModel dx="6689" dy="3641" grid="1" gridSize="10" guides="1" tooltips="1" connect="1" arrows="1" fold="1" page="1" pageScale="1" pageWidth="827" pageHeight="1169" math="0" shadow="0">
      <root>
        <mxCell id="WIyWlLk6GJQsqaUBKTNV-0" />
        <mxCell id="WIyWlLk6GJQsqaUBKTNV-1" parent="WIyWlLk6GJQsqaUBKTNV-0" />
        <mxCell id="zkfFHV4jXpPFQw0GAbJ--13" value="Título da Tabela" style="swimlane;fontStyle=0;align=center;verticalAlign=top;childLayout=stackLayout;horizontal=1;startSize=26;horizontalStack=0;resizeParent=1;resizeLast=0;collapsible=1;marginBottom=0;rounded=0;shadow=0;strokeWidth=1;" parent="WIyWlLk6GJQsqaUBKTNV-1" vertex="1">
          <mxGeometry x="-1931" y="-2260" width="160" height="86" as="geometry">
            <mxRectangle x="340" y="380" width="170" height="26" as="alternateBounds" />
          </mxGeometry>
        </mxCell>
        <mxCell id="zkfFHV4jXpPFQw0GAbJ--14" value="Atributo" style="text;align=left;verticalAlign=top;spacingLeft=4;spacingRight=4;overflow=hidden;rotatable=0;points=[[0,0.5],[1,0.5]];portConstraint=eastwest;" parent="zkfFHV4jXpPFQw0GAbJ--13" vertex="1">
          <mxGeometry y="26" width="160" height="26" as="geometry" />
        </mxCell>
        <mxCell id="zkfFHV4jXpPFQw0GAbJ--15" value="" style="line;html=1;strokeWidth=1;align=left;verticalAlign=middle;spacingTop=-1;spacingLeft=3;spacingRight=3;rotatable=0;labelPosition=right;points=[];portConstraint=eastwest;" parent="zkfFHV4jXpPFQw0GAbJ--13" vertex="1">
          <mxGeometry y="52" width="160" height="8" as="geometry" />
        </mxCell>
        <mxCell id="gJPejOsy9dFF1rbJm-w0-11" value="Atributo" style="text;align=left;verticalAlign=top;spacingLeft=4;spacingRight=4;overflow=hidden;rotatable=0;points=[[0,0.5],[1,0.5]];portConstraint=eastwest;" parent="zkfFHV4jXpPFQw0GAbJ--13" vertex="1">
          <mxGeometry y="60" width="160" height="26" as="geometry" />
        </mxCell>
        <mxCell id="gJPejOsy9dFF1rbJm-w0-0" value="Tarefa Corretiva" style="swimlane;fontStyle=0;align=center;verticalAlign=top;childLayout=stackLayout;horizontal=1;startSize=26;horizontalStack=0;resizeParent=1;resizeLast=0;collapsible=1;marginBottom=0;rounded=0;shadow=0;strokeWidth=1;" parent="WIyWlLk6GJQsqaUBKTNV-1" vertex="1">
          <mxGeometry x="-2479" y="-2090" width="230" height="346" as="geometry">
            <mxRectangle x="240" y="440" width="170" height="26" as="alternateBounds" />
          </mxGeometry>
        </mxCell>
        <mxCell id="gJPejOsy9dFF1rbJm-w0-62" value="ObjectID da Tarefa" style="text;align=left;verticalAlign=top;spacingLeft=4;spacingRight=4;overflow=hidden;rotatable=0;points=[[0,0.5],[1,0.5]];portConstraint=eastwest;fontStyle=4" parent="gJPejOsy9dFF1rbJm-w0-0" vertex="1">
          <mxGeometry y="26" width="230" height="26" as="geometry" />
        </mxCell>
        <mxCell id="gJPejOsy9dFF1rbJm-w0-4" value="Título da tarefa" style="text;align=left;verticalAlign=top;spacingLeft=4;spacingRight=4;overflow=hidden;rotatable=0;points=[[0,0.5],[1,0.5]];portConstraint=eastwest;fontStyle=0" parent="gJPejOsy9dFF1rbJm-w0-0" vertex="1">
          <mxGeometry y="52" width="230" height="26" as="geometry" />
        </mxCell>
        <mxCell id="gJPejOsy9dFF1rbJm-w0-5" value="Descrição da tarefa" style="text;align=left;verticalAlign=top;spacingLeft=4;spacingRight=4;overflow=hidden;rotatable=0;points=[[0,0.5],[1,0.5]];portConstraint=eastwest;" parent="gJPejOsy9dFF1rbJm-w0-0" vertex="1">
          <mxGeometry y="78" width="230" height="26" as="geometry" />
        </mxCell>
        <mxCell id="gJPejOsy9dFF1rbJm-w0-10" value="Técnico Interno" style="text;align=left;verticalAlign=top;spacingLeft=4;spacingRight=4;overflow=hidden;rotatable=0;points=[[0,0.5],[1,0.5]];portConstraint=eastwest;" parent="gJPejOsy9dFF1rbJm-w0-0" vertex="1">
          <mxGeometry y="104" width="230" height="26" as="geometry" />
        </mxCell>
        <mxCell id="gJPejOsy9dFF1rbJm-w0-9" value="Técnico Externo" style="text;align=left;verticalAlign=top;spacingLeft=4;spacingRight=4;overflow=hidden;rotatable=0;points=[[0,0.5],[1,0.5]];portConstraint=eastwest;" parent="gJPejOsy9dFF1rbJm-w0-0" vertex="1">
          <mxGeometry y="130" width="230" height="26" as="geometry" />
        </mxCell>
        <mxCell id="gJPejOsy9dFF1rbJm-w0-8" value="Peças do almoxarifado" style="text;align=left;verticalAlign=top;spacingLeft=4;spacingRight=4;overflow=hidden;rotatable=0;points=[[0,0.5],[1,0.5]];portConstraint=eastwest;" parent="gJPejOsy9dFF1rbJm-w0-0" vertex="1">
          <mxGeometry y="156" width="230" height="26" as="geometry" />
        </mxCell>
        <mxCell id="gJPejOsy9dFF1rbJm-w0-7" value="Status da tarefa" style="text;align=left;verticalAlign=top;spacingLeft=4;spacingRight=4;overflow=hidden;rotatable=0;points=[[0,0.5],[1,0.5]];portConstraint=eastwest;" parent="gJPejOsy9dFF1rbJm-w0-0" vertex="1">
          <mxGeometry y="182" width="230" height="26" as="geometry" />
        </mxCell>
        <mxCell id="gJPejOsy9dFF1rbJm-w0-6" value="ID do usuário que solicitou" style="text;align=left;verticalAlign=top;spacingLeft=4;spacingRight=4;overflow=hidden;rotatable=0;points=[[0,0.5],[1,0.5]];portConstraint=eastwest;" parent="gJPejOsy9dFF1rbJm-w0-0" vertex="1">
          <mxGeometry y="208" width="230" height="26" as="geometry" />
        </mxCell>
        <mxCell id="gJPejOsy9dFF1rbJm-w0-13" value="último ID do usuário" style="text;align=left;verticalAlign=top;spacingLeft=4;spacingRight=4;overflow=hidden;rotatable=0;points=[[0,0.5],[1,0.5]];portConstraint=eastwest;" parent="gJPejOsy9dFF1rbJm-w0-0" vertex="1">
          <mxGeometry y="234" width="230" height="26" as="geometry" />
        </mxCell>
        <mxCell id="gJPejOsy9dFF1rbJm-w0-12" value="Setor" style="text;align=left;verticalAlign=top;spacingLeft=4;spacingRight=4;overflow=hidden;rotatable=0;points=[[0,0.5],[1,0.5]];portConstraint=eastwest;" parent="gJPejOsy9dFF1rbJm-w0-0" vertex="1">
          <mxGeometry y="260" width="230" height="26" as="geometry" />
        </mxCell>
        <mxCell id="gJPejOsy9dFF1rbJm-w0-2" value="" style="line;html=1;strokeWidth=1;align=left;verticalAlign=middle;spacingTop=-1;spacingLeft=3;spacingRight=3;rotatable=0;labelPosition=right;points=[];portConstraint=eastwest;" parent="gJPejOsy9dFF1rbJm-w0-0" vertex="1">
          <mxGeometry y="286" width="230" height="8" as="geometry" />
        </mxCell>
        <mxCell id="gJPejOsy9dFF1rbJm-w0-63" value="ObjectID da Máquina" style="text;align=left;verticalAlign=top;spacingLeft=4;spacingRight=4;overflow=hidden;rotatable=0;points=[[0,0.5],[1,0.5]];portConstraint=eastwest;fontStyle=4" parent="gJPejOsy9dFF1rbJm-w0-0" vertex="1">
          <mxGeometry y="294" width="230" height="26" as="geometry" />
        </mxCell>
        <mxCell id="gJPejOsy9dFF1rbJm-w0-82" value="ObjectID do Usuário" style="text;align=left;verticalAlign=top;spacingLeft=4;spacingRight=4;overflow=hidden;rotatable=0;points=[[0,0.5],[1,0.5]];portConstraint=eastwest;fontStyle=4" parent="gJPejOsy9dFF1rbJm-w0-0" vertex="1">
          <mxGeometry y="320" width="230" height="26" as="geometry" />
        </mxCell>
        <mxCell id="gJPejOsy9dFF1rbJm-w0-17" value="Usuário" style="swimlane;fontStyle=0;align=center;verticalAlign=top;childLayout=stackLayout;horizontal=1;startSize=26;horizontalStack=0;resizeParent=1;resizeLast=0;collapsible=1;marginBottom=0;rounded=0;shadow=0;strokeWidth=1;" parent="WIyWlLk6GJQsqaUBKTNV-1" vertex="1">
          <mxGeometry x="-1410" y="-2100" width="216" height="424" as="geometry">
            <mxRectangle x="340" y="380" width="170" height="26" as="alternateBounds" />
          </mxGeometry>
        </mxCell>
        <mxCell id="gJPejOsy9dFF1rbJm-w0-81" value="ObjectID do Usuário" style="text;align=left;verticalAlign=top;spacingLeft=4;spacingRight=4;overflow=hidden;rotatable=0;points=[[0,0.5],[1,0.5]];portConstraint=eastwest;" parent="gJPejOsy9dFF1rbJm-w0-17" vertex="1">
          <mxGeometry y="26" width="216" height="26" as="geometry" />
        </mxCell>
        <mxCell id="gJPejOsy9dFF1rbJm-w0-18" value="Nome" style="text;align=left;verticalAlign=top;spacingLeft=4;spacingRight=4;overflow=hidden;rotatable=0;points=[[0,0.5],[1,0.5]];portConstraint=eastwest;" parent="gJPejOsy9dFF1rbJm-w0-17" vertex="1">
          <mxGeometry y="52" width="216" height="26" as="geometry" />
        </mxCell>
        <mxCell id="gJPejOsy9dFF1rbJm-w0-32" value="Sobrenome" style="text;align=left;verticalAlign=top;spacingLeft=4;spacingRight=4;overflow=hidden;rotatable=0;points=[[0,0.5],[1,0.5]];portConstraint=eastwest;" parent="gJPejOsy9dFF1rbJm-w0-17" vertex="1">
          <mxGeometry y="78" width="216" height="26" as="geometry" />
        </mxCell>
        <mxCell id="gJPejOsy9dFF1rbJm-w0-31" value="ID" style="text;align=left;verticalAlign=top;spacingLeft=4;spacingRight=4;overflow=hidden;rotatable=0;points=[[0,0.5],[1,0.5]];portConstraint=eastwest;" parent="gJPejOsy9dFF1rbJm-w0-17" vertex="1">
          <mxGeometry y="104" width="216" height="26" as="geometry" />
        </mxCell>
        <mxCell id="gJPejOsy9dFF1rbJm-w0-35" value="ID do funcionário" style="text;align=left;verticalAlign=top;spacingLeft=4;spacingRight=4;overflow=hidden;rotatable=0;points=[[0,0.5],[1,0.5]];portConstraint=eastwest;" parent="gJPejOsy9dFF1rbJm-w0-17" vertex="1">
          <mxGeometry y="130" width="216" height="26" as="geometry" />
        </mxCell>
        <mxCell id="gJPejOsy9dFF1rbJm-w0-30" value="email" style="text;align=left;verticalAlign=top;spacingLeft=4;spacingRight=4;overflow=hidden;rotatable=0;points=[[0,0.5],[1,0.5]];portConstraint=eastwest;" parent="gJPejOsy9dFF1rbJm-w0-17" vertex="1">
          <mxGeometry y="156" width="216" height="26" as="geometry" />
        </mxCell>
        <mxCell id="gJPejOsy9dFF1rbJm-w0-29" value="Área Técnica" style="text;align=left;verticalAlign=top;spacingLeft=4;spacingRight=4;overflow=hidden;rotatable=0;points=[[0,0.5],[1,0.5]];portConstraint=eastwest;" parent="gJPejOsy9dFF1rbJm-w0-17" vertex="1">
          <mxGeometry y="182" width="216" height="26" as="geometry" />
        </mxCell>
        <mxCell id="gJPejOsy9dFF1rbJm-w0-28" value="Nível de Competência (0 a 5)" style="text;align=left;verticalAlign=top;spacingLeft=4;spacingRight=4;overflow=hidden;rotatable=0;points=[[0,0.5],[1,0.5]];portConstraint=eastwest;" parent="gJPejOsy9dFF1rbJm-w0-17" vertex="1">
          <mxGeometry y="208" width="216" height="26" as="geometry" />
        </mxCell>
        <mxCell id="gJPejOsy9dFF1rbJm-w0-27" value="Usuário (login)" style="text;align=left;verticalAlign=top;spacingLeft=4;spacingRight=4;overflow=hidden;rotatable=0;points=[[0,0.5],[1,0.5]];portConstraint=eastwest;" parent="gJPejOsy9dFF1rbJm-w0-17" vertex="1">
          <mxGeometry y="234" width="216" height="26" as="geometry" />
        </mxCell>
        <mxCell id="gJPejOsy9dFF1rbJm-w0-26" value="Senha" style="text;align=left;verticalAlign=top;spacingLeft=4;spacingRight=4;overflow=hidden;rotatable=0;points=[[0,0.5],[1,0.5]];portConstraint=eastwest;" parent="gJPejOsy9dFF1rbJm-w0-17" vertex="1">
          <mxGeometry y="260" width="216" height="26" as="geometry" />
        </mxCell>
        <mxCell id="gJPejOsy9dFF1rbJm-w0-33" value="Permissões de Usuário" style="text;align=left;verticalAlign=top;spacingLeft=4;spacingRight=4;overflow=hidden;rotatable=0;points=[[0,0.5],[1,0.5]];portConstraint=eastwest;" parent="gJPejOsy9dFF1rbJm-w0-17" vertex="1">
          <mxGeometry y="286" width="216" height="26" as="geometry" />
        </mxCell>
        <mxCell id="gJPejOsy9dFF1rbJm-w0-34" value="Setup de Notificação" style="text;align=left;verticalAlign=top;spacingLeft=4;spacingRight=4;overflow=hidden;rotatable=0;points=[[0,0.5],[1,0.5]];portConstraint=eastwest;" parent="gJPejOsy9dFF1rbJm-w0-17" vertex="1">
          <mxGeometry y="312" width="216" height="26" as="geometry" />
        </mxCell>
        <mxCell id="gJPejOsy9dFF1rbJm-w0-36" value="Valor da hora" style="text;align=left;verticalAlign=top;spacingLeft=4;spacingRight=4;overflow=hidden;rotatable=0;points=[[0,0.5],[1,0.5]];portConstraint=eastwest;" parent="gJPejOsy9dFF1rbJm-w0-17" vertex="1">
          <mxGeometry y="338" width="216" height="26" as="geometry" />
        </mxCell>
        <mxCell id="gJPejOsy9dFF1rbJm-w0-19" value="" style="line;html=1;strokeWidth=1;align=left;verticalAlign=middle;spacingTop=-1;spacingLeft=3;spacingRight=3;rotatable=0;labelPosition=right;points=[];portConstraint=eastwest;" parent="gJPejOsy9dFF1rbJm-w0-17" vertex="1">
          <mxGeometry y="364" width="216" height="8" as="geometry" />
        </mxCell>
        <mxCell id="gJPejOsy9dFF1rbJm-w0-105" value="ObjectID do Setor Operacional" style="text;align=left;verticalAlign=top;spacingLeft=4;spacingRight=4;overflow=hidden;rotatable=0;points=[[0,0.5],[1,0.5]];portConstraint=eastwest;fontStyle=4" parent="gJPejOsy9dFF1rbJm-w0-17" vertex="1">
          <mxGeometry y="372" width="216" height="26" as="geometry" />
        </mxCell>
        <mxCell id="gJPejOsy9dFF1rbJm-w0-21" value="Peças" style="swimlane;fontStyle=0;align=center;verticalAlign=top;childLayout=stackLayout;horizontal=1;startSize=26;horizontalStack=0;resizeParent=1;resizeLast=0;collapsible=1;marginBottom=0;rounded=0;shadow=0;strokeWidth=1;" parent="WIyWlLk6GJQsqaUBKTNV-1" vertex="1">
          <mxGeometry x="-2940" y="-1850" width="215" height="400" as="geometry">
            <mxRectangle x="550" y="499" width="170" height="26" as="alternateBounds" />
          </mxGeometry>
        </mxCell>
        <mxCell id="gJPejOsy9dFF1rbJm-w0-22" value="Descrição" style="text;align=left;verticalAlign=top;spacingLeft=4;spacingRight=4;overflow=hidden;rotatable=0;points=[[0,0.5],[1,0.5]];portConstraint=eastwest;" parent="gJPejOsy9dFF1rbJm-w0-21" vertex="1">
          <mxGeometry y="26" width="215" height="26" as="geometry" />
        </mxCell>
        <mxCell id="gJPejOsy9dFF1rbJm-w0-118" value="Código do Fabricante" style="text;align=left;verticalAlign=top;spacingLeft=4;spacingRight=4;overflow=hidden;rotatable=0;points=[[0,0.5],[1,0.5]];portConstraint=eastwest;" parent="gJPejOsy9dFF1rbJm-w0-21" vertex="1">
          <mxGeometry y="52" width="215" height="26" as="geometry" />
        </mxCell>
        <mxCell id="gJPejOsy9dFF1rbJm-w0-117" value="Código Interno" style="text;align=left;verticalAlign=top;spacingLeft=4;spacingRight=4;overflow=hidden;rotatable=0;points=[[0,0.5],[1,0.5]];portConstraint=eastwest;" parent="gJPejOsy9dFF1rbJm-w0-21" vertex="1">
          <mxGeometry y="78" width="215" height="26" as="geometry" />
        </mxCell>
        <mxCell id="gJPejOsy9dFF1rbJm-w0-116" value="Local de Aplicação" style="text;align=left;verticalAlign=top;spacingLeft=4;spacingRight=4;overflow=hidden;rotatable=0;points=[[0,0.5],[1,0.5]];portConstraint=eastwest;" parent="gJPejOsy9dFF1rbJm-w0-21" vertex="1">
          <mxGeometry y="104" width="215" height="26" as="geometry" />
        </mxCell>
        <mxCell id="gJPejOsy9dFF1rbJm-w0-115" value="Localização da peça" style="text;align=left;verticalAlign=top;spacingLeft=4;spacingRight=4;overflow=hidden;rotatable=0;points=[[0,0.5],[1,0.5]];portConstraint=eastwest;" parent="gJPejOsy9dFF1rbJm-w0-21" vertex="1">
          <mxGeometry y="130" width="215" height="26" as="geometry" />
        </mxCell>
        <mxCell id="gJPejOsy9dFF1rbJm-w0-114" value="Fornecedor Preferencial" style="text;align=left;verticalAlign=top;spacingLeft=4;spacingRight=4;overflow=hidden;rotatable=0;points=[[0,0.5],[1,0.5]];portConstraint=eastwest;" parent="gJPejOsy9dFF1rbJm-w0-21" vertex="1">
          <mxGeometry y="156" width="215" height="26" as="geometry" />
        </mxCell>
        <mxCell id="gJPejOsy9dFF1rbJm-w0-123" value="Fornecedor 2" style="text;align=left;verticalAlign=top;spacingLeft=4;spacingRight=4;overflow=hidden;rotatable=0;points=[[0,0.5],[1,0.5]];portConstraint=eastwest;" parent="gJPejOsy9dFF1rbJm-w0-21" vertex="1">
          <mxGeometry y="182" width="215" height="26" as="geometry" />
        </mxCell>
        <mxCell id="gJPejOsy9dFF1rbJm-w0-122" value="Fornecedor 3" style="text;align=left;verticalAlign=top;spacingLeft=4;spacingRight=4;overflow=hidden;rotatable=0;points=[[0,0.5],[1,0.5]];portConstraint=eastwest;" parent="gJPejOsy9dFF1rbJm-w0-21" vertex="1">
          <mxGeometry y="208" width="215" height="26" as="geometry" />
        </mxCell>
        <mxCell id="gJPejOsy9dFF1rbJm-w0-121" value="Quantidade em estoque" style="text;align=left;verticalAlign=top;spacingLeft=4;spacingRight=4;overflow=hidden;rotatable=0;points=[[0,0.5],[1,0.5]];portConstraint=eastwest;" parent="gJPejOsy9dFF1rbJm-w0-21" vertex="1">
          <mxGeometry y="234" width="215" height="26" as="geometry" />
        </mxCell>
        <mxCell id="gJPejOsy9dFF1rbJm-w0-120" value="Quantidade Mínima" style="text;align=left;verticalAlign=top;spacingLeft=4;spacingRight=4;overflow=hidden;rotatable=0;points=[[0,0.5],[1,0.5]];portConstraint=eastwest;" parent="gJPejOsy9dFF1rbJm-w0-21" vertex="1">
          <mxGeometry y="260" width="215" height="26" as="geometry" />
        </mxCell>
        <mxCell id="gJPejOsy9dFF1rbJm-w0-125" value="Valor Unitário" style="text;align=left;verticalAlign=top;spacingLeft=4;spacingRight=4;overflow=hidden;rotatable=0;points=[[0,0.5],[1,0.5]];portConstraint=eastwest;" parent="gJPejOsy9dFF1rbJm-w0-21" vertex="1">
          <mxGeometry y="286" width="215" height="26" as="geometry" />
        </mxCell>
        <mxCell id="gJPejOsy9dFF1rbJm-w0-124" value="Valor Total em Estoque" style="text;align=left;verticalAlign=top;spacingLeft=4;spacingRight=4;overflow=hidden;rotatable=0;points=[[0,0.5],[1,0.5]];portConstraint=eastwest;" parent="gJPejOsy9dFF1rbJm-w0-21" vertex="1">
          <mxGeometry y="312" width="215" height="26" as="geometry" />
        </mxCell>
        <mxCell id="gJPejOsy9dFF1rbJm-w0-126" value="Foto da Peça" style="text;align=left;verticalAlign=top;spacingLeft=4;spacingRight=4;overflow=hidden;rotatable=0;points=[[0,0.5],[1,0.5]];portConstraint=eastwest;" parent="gJPejOsy9dFF1rbJm-w0-21" vertex="1">
          <mxGeometry y="338" width="215" height="26" as="geometry" />
        </mxCell>
        <mxCell id="gJPejOsy9dFF1rbJm-w0-23" value="" style="line;html=1;strokeWidth=1;align=left;verticalAlign=middle;spacingTop=-1;spacingLeft=3;spacingRight=3;rotatable=0;labelPosition=right;points=[];portConstraint=eastwest;" parent="gJPejOsy9dFF1rbJm-w0-21" vertex="1">
          <mxGeometry y="364" width="215" height="8" as="geometry" />
        </mxCell>
        <mxCell id="gJPejOsy9dFF1rbJm-w0-37" value="Máquina" style="swimlane;fontStyle=0;align=center;verticalAlign=top;childLayout=stackLayout;horizontal=1;startSize=29;horizontalStack=0;resizeParent=1;resizeLast=0;collapsible=1;marginBottom=0;rounded=0;shadow=0;strokeWidth=1;" parent="WIyWlLk6GJQsqaUBKTNV-1" vertex="1">
          <mxGeometry x="-3210" y="-1580" width="200" height="505" as="geometry">
            <mxRectangle x="550" y="499" width="170" height="26" as="alternateBounds" />
          </mxGeometry>
        </mxCell>
        <mxCell id="gJPejOsy9dFF1rbJm-w0-61" value="ObjectID da Máquina" style="text;align=left;verticalAlign=top;spacingLeft=4;spacingRight=4;overflow=hidden;rotatable=0;points=[[0,0.5],[1,0.5]];portConstraint=eastwest;fontStyle=4" parent="gJPejOsy9dFF1rbJm-w0-37" vertex="1">
          <mxGeometry y="29" width="200" height="26" as="geometry" />
        </mxCell>
        <mxCell id="gJPejOsy9dFF1rbJm-w0-49" value="Nome da Máquina" style="text;align=left;verticalAlign=top;spacingLeft=4;spacingRight=4;overflow=hidden;rotatable=0;points=[[0,0.5],[1,0.5]];portConstraint=eastwest;" parent="gJPejOsy9dFF1rbJm-w0-37" vertex="1">
          <mxGeometry y="55" width="200" height="26" as="geometry" />
        </mxCell>
        <mxCell id="gJPejOsy9dFF1rbJm-w0-48" value="Nome do Fabricante" style="text;align=left;verticalAlign=top;spacingLeft=4;spacingRight=4;overflow=hidden;rotatable=0;points=[[0,0.5],[1,0.5]];portConstraint=eastwest;" parent="gJPejOsy9dFF1rbJm-w0-37" vertex="1">
          <mxGeometry y="81" width="200" height="26" as="geometry" />
        </mxCell>
        <mxCell id="gJPejOsy9dFF1rbJm-w0-47" value="Modelo da Máquina" style="text;align=left;verticalAlign=top;spacingLeft=4;spacingRight=4;overflow=hidden;rotatable=0;points=[[0,0.5],[1,0.5]];portConstraint=eastwest;" parent="gJPejOsy9dFF1rbJm-w0-37" vertex="1">
          <mxGeometry y="107" width="200" height="26" as="geometry" />
        </mxCell>
        <mxCell id="gJPejOsy9dFF1rbJm-w0-46" value="Número de Série" style="text;align=left;verticalAlign=top;spacingLeft=4;spacingRight=4;overflow=hidden;rotatable=0;points=[[0,0.5],[1,0.5]];portConstraint=eastwest;" parent="gJPejOsy9dFF1rbJm-w0-37" vertex="1">
          <mxGeometry y="133" width="200" height="26" as="geometry" />
        </mxCell>
        <mxCell id="gJPejOsy9dFF1rbJm-w0-45" value="Ano de Fabricação" style="text;align=left;verticalAlign=top;spacingLeft=4;spacingRight=4;overflow=hidden;rotatable=0;points=[[0,0.5],[1,0.5]];portConstraint=eastwest;" parent="gJPejOsy9dFF1rbJm-w0-37" vertex="1">
          <mxGeometry y="159" width="200" height="26" as="geometry" />
        </mxCell>
        <mxCell id="gJPejOsy9dFF1rbJm-w0-44" value="Ano de Instalação" style="text;align=left;verticalAlign=top;spacingLeft=4;spacingRight=4;overflow=hidden;rotatable=0;points=[[0,0.5],[1,0.5]];portConstraint=eastwest;" parent="gJPejOsy9dFF1rbJm-w0-37" vertex="1">
          <mxGeometry y="185" width="200" height="26" as="geometry" />
        </mxCell>
        <mxCell id="gJPejOsy9dFF1rbJm-w0-43" value="Performance Máxima" style="text;align=left;verticalAlign=top;spacingLeft=4;spacingRight=4;overflow=hidden;rotatable=0;points=[[0,0.5],[1,0.5]];portConstraint=eastwest;" parent="gJPejOsy9dFF1rbJm-w0-37" vertex="1">
          <mxGeometry y="211" width="200" height="26" as="geometry" />
        </mxCell>
        <mxCell id="gJPejOsy9dFF1rbJm-w0-42" value="Performance de Produção" style="text;align=left;verticalAlign=top;spacingLeft=4;spacingRight=4;overflow=hidden;rotatable=0;points=[[0,0.5],[1,0.5]];portConstraint=eastwest;" parent="gJPejOsy9dFF1rbJm-w0-37" vertex="1">
          <mxGeometry y="237" width="200" height="26" as="geometry" />
        </mxCell>
        <mxCell id="gJPejOsy9dFF1rbJm-w0-41" value="Unidade de Velocidade" style="text;align=left;verticalAlign=top;spacingLeft=4;spacingRight=4;overflow=hidden;rotatable=0;points=[[0,0.5],[1,0.5]];portConstraint=eastwest;" parent="gJPejOsy9dFF1rbJm-w0-37" vertex="1">
          <mxGeometry y="263" width="200" height="26" as="geometry" />
        </mxCell>
        <mxCell id="gJPejOsy9dFF1rbJm-w0-51" value="Fator de Utilização" style="text;align=left;verticalAlign=top;spacingLeft=4;spacingRight=4;overflow=hidden;rotatable=0;points=[[0,0.5],[1,0.5]];portConstraint=eastwest;" parent="gJPejOsy9dFF1rbJm-w0-37" vertex="1">
          <mxGeometry y="289" width="200" height="26" as="geometry" />
        </mxCell>
        <mxCell id="gJPejOsy9dFF1rbJm-w0-50" value="Cor da Máquina" style="text;align=left;verticalAlign=top;spacingLeft=4;spacingRight=4;overflow=hidden;rotatable=0;points=[[0,0.5],[1,0.5]];portConstraint=eastwest;" parent="gJPejOsy9dFF1rbJm-w0-37" vertex="1">
          <mxGeometry y="315" width="200" height="26" as="geometry" />
        </mxCell>
        <mxCell id="gJPejOsy9dFF1rbJm-w0-54" value="SmartSensorNode" style="text;align=left;verticalAlign=top;spacingLeft=4;spacingRight=4;overflow=hidden;rotatable=0;points=[[0,0.5],[1,0.5]];portConstraint=eastwest;" parent="gJPejOsy9dFF1rbJm-w0-37" vertex="1">
          <mxGeometry y="341" width="200" height="26" as="geometry" />
        </mxCell>
        <mxCell id="gJPejOsy9dFF1rbJm-w0-53" value="Sub-sistema" style="text;align=left;verticalAlign=top;spacingLeft=4;spacingRight=4;overflow=hidden;rotatable=0;points=[[0,0.5],[1,0.5]];portConstraint=eastwest;" parent="gJPejOsy9dFF1rbJm-w0-37" vertex="1">
          <mxGeometry y="367" width="200" height="26" as="geometry" />
        </mxCell>
        <mxCell id="gJPejOsy9dFF1rbJm-w0-52" value="Sub-grupo" style="text;align=left;verticalAlign=top;spacingLeft=4;spacingRight=4;overflow=hidden;rotatable=0;points=[[0,0.5],[1,0.5]];portConstraint=eastwest;" parent="gJPejOsy9dFF1rbJm-w0-37" vertex="1">
          <mxGeometry y="393" width="200" height="26" as="geometry" />
        </mxCell>
        <mxCell id="gJPejOsy9dFF1rbJm-w0-55" value="Manual da Máquina (.pdf)" style="text;align=left;verticalAlign=top;spacingLeft=4;spacingRight=4;overflow=hidden;rotatable=0;points=[[0,0.5],[1,0.5]];portConstraint=eastwest;" parent="gJPejOsy9dFF1rbJm-w0-37" vertex="1">
          <mxGeometry y="419" width="200" height="26" as="geometry" />
        </mxCell>
        <mxCell id="gJPejOsy9dFF1rbJm-w0-39" value="" style="line;html=1;strokeWidth=1;align=left;verticalAlign=middle;spacingTop=-1;spacingLeft=3;spacingRight=3;rotatable=0;labelPosition=right;points=[];portConstraint=eastwest;" parent="gJPejOsy9dFF1rbJm-w0-37" vertex="1">
          <mxGeometry y="445" width="200" height="8" as="geometry" />
        </mxCell>
        <mxCell id="gJPejOsy9dFF1rbJm-w0-104" value="ObjectID do Setor Operacional" style="text;align=left;verticalAlign=top;spacingLeft=4;spacingRight=4;overflow=hidden;rotatable=0;points=[[0,0.5],[1,0.5]];portConstraint=eastwest;fontStyle=4" parent="gJPejOsy9dFF1rbJm-w0-37" vertex="1">
          <mxGeometry y="453" width="200" height="26" as="geometry" />
        </mxCell>
        <mxCell id="gJPejOsy9dFF1rbJm-w0-57" value="" style="endArrow=open;shadow=0;strokeWidth=1;rounded=0;curved=0;endFill=1;edgeStyle=elbowEdgeStyle;elbow=vertical;" parent="WIyWlLk6GJQsqaUBKTNV-1" source="gJPejOsy9dFF1rbJm-w0-37" target="gJPejOsy9dFF1rbJm-w0-0" edge="1">
          <mxGeometry x="0.5" y="41" relative="1" as="geometry">
            <mxPoint x="-2770" y="-1985" as="sourcePoint" />
            <mxPoint x="-2357" y="-2009" as="targetPoint" />
            <mxPoint x="-40" y="32" as="offset" />
            <Array as="points">
              <mxPoint x="-2610" y="-1970" />
              <mxPoint x="-2483" y="-1985" />
            </Array>
          </mxGeometry>
        </mxCell>
        <mxCell id="gJPejOsy9dFF1rbJm-w0-58" value="N" style="resizable=0;align=left;verticalAlign=bottom;labelBackgroundColor=none;fontSize=12;" parent="gJPejOsy9dFF1rbJm-w0-57" connectable="0" vertex="1">
          <mxGeometry x="-1" relative="1" as="geometry">
            <mxPoint x="10" as="offset" />
          </mxGeometry>
        </mxCell>
        <mxCell id="gJPejOsy9dFF1rbJm-w0-59" value="1" style="resizable=0;align=right;verticalAlign=bottom;labelBackgroundColor=none;fontSize=12;" parent="gJPejOsy9dFF1rbJm-w0-57" connectable="0" vertex="1">
          <mxGeometry x="1" relative="1" as="geometry">
            <mxPoint x="-20" as="offset" />
          </mxGeometry>
        </mxCell>
        <mxCell id="gJPejOsy9dFF1rbJm-w0-60" value="Criar Tarefa" style="text;html=1;resizable=0;points=[];;align=center;verticalAlign=middle;labelBackgroundColor=none;rounded=0;shadow=0;strokeWidth=1;fontSize=12;" parent="gJPejOsy9dFF1rbJm-w0-57" vertex="1" connectable="0">
          <mxGeometry x="0.5" y="49" relative="1" as="geometry">
            <mxPoint x="-56" y="40" as="offset" />
          </mxGeometry>
        </mxCell>
        <mxCell id="gJPejOsy9dFF1rbJm-w0-64" value="Tarefa Preventiva" style="swimlane;fontStyle=0;align=center;verticalAlign=top;childLayout=stackLayout;horizontal=1;startSize=26;horizontalStack=0;resizeParent=1;resizeLast=0;collapsible=1;marginBottom=0;rounded=0;shadow=0;strokeWidth=1;" parent="WIyWlLk6GJQsqaUBKTNV-1" vertex="1">
          <mxGeometry x="-2480" y="-1710" width="230" height="866" as="geometry">
            <mxRectangle x="240" y="440" width="170" height="26" as="alternateBounds" />
          </mxGeometry>
        </mxCell>
        <mxCell id="gJPejOsy9dFF1rbJm-w0-65" value="ObjectID da Tarefa" style="text;align=left;verticalAlign=top;spacingLeft=4;spacingRight=4;overflow=hidden;rotatable=0;points=[[0,0.5],[1,0.5]];portConstraint=eastwest;fontStyle=4" parent="gJPejOsy9dFF1rbJm-w0-64" vertex="1">
          <mxGeometry y="26" width="230" height="26" as="geometry" />
        </mxCell>
        <mxCell id="gJPejOsy9dFF1rbJm-w0-66" value="Título da tarefa" style="text;align=left;verticalAlign=top;spacingLeft=4;spacingRight=4;overflow=hidden;rotatable=0;points=[[0,0.5],[1,0.5]];portConstraint=eastwest;fontStyle=0" parent="gJPejOsy9dFF1rbJm-w0-64" vertex="1">
          <mxGeometry y="52" width="230" height="26" as="geometry" />
        </mxCell>
        <mxCell id="gJPejOsy9dFF1rbJm-w0-67" value="Descrição da tarefa" style="text;align=left;verticalAlign=top;spacingLeft=4;spacingRight=4;overflow=hidden;rotatable=0;points=[[0,0.5],[1,0.5]];portConstraint=eastwest;" parent="gJPejOsy9dFF1rbJm-w0-64" vertex="1">
          <mxGeometry y="78" width="230" height="26" as="geometry" />
        </mxCell>
        <mxCell id="gJPejOsy9dFF1rbJm-w0-68" value="Técnico Interno" style="text;align=left;verticalAlign=top;spacingLeft=4;spacingRight=4;overflow=hidden;rotatable=0;points=[[0,0.5],[1,0.5]];portConstraint=eastwest;" parent="gJPejOsy9dFF1rbJm-w0-64" vertex="1">
          <mxGeometry y="104" width="230" height="26" as="geometry" />
        </mxCell>
        <mxCell id="gJPejOsy9dFF1rbJm-w0-69" value="Técnico Externo" style="text;align=left;verticalAlign=top;spacingLeft=4;spacingRight=4;overflow=hidden;rotatable=0;points=[[0,0.5],[1,0.5]];portConstraint=eastwest;" parent="gJPejOsy9dFF1rbJm-w0-64" vertex="1">
          <mxGeometry y="130" width="230" height="26" as="geometry" />
        </mxCell>
        <mxCell id="gJPejOsy9dFF1rbJm-w0-70" value="Peças do almoxarifado" style="text;align=left;verticalAlign=top;spacingLeft=4;spacingRight=4;overflow=hidden;rotatable=0;points=[[0,0.5],[1,0.5]];portConstraint=eastwest;" parent="gJPejOsy9dFF1rbJm-w0-64" vertex="1">
          <mxGeometry y="156" width="230" height="26" as="geometry" />
        </mxCell>
        <mxCell id="gJPejOsy9dFF1rbJm-w0-71" value="Status da tarefa" style="text;align=left;verticalAlign=top;spacingLeft=4;spacingRight=4;overflow=hidden;rotatable=0;points=[[0,0.5],[1,0.5]];portConstraint=eastwest;" parent="gJPejOsy9dFF1rbJm-w0-64" vertex="1">
          <mxGeometry y="182" width="230" height="26" as="geometry" />
        </mxCell>
        <mxCell id="gJPejOsy9dFF1rbJm-w0-72" value="ID do usuário que solicitou" style="text;align=left;verticalAlign=top;spacingLeft=4;spacingRight=4;overflow=hidden;rotatable=0;points=[[0,0.5],[1,0.5]];portConstraint=eastwest;" parent="gJPejOsy9dFF1rbJm-w0-64" vertex="1">
          <mxGeometry y="208" width="230" height="26" as="geometry" />
        </mxCell>
        <mxCell id="gJPejOsy9dFF1rbJm-w0-73" value="último ID do usuário" style="text;align=left;verticalAlign=top;spacingLeft=4;spacingRight=4;overflow=hidden;rotatable=0;points=[[0,0.5],[1,0.5]];portConstraint=eastwest;" parent="gJPejOsy9dFF1rbJm-w0-64" vertex="1">
          <mxGeometry y="234" width="230" height="26" as="geometry" />
        </mxCell>
        <mxCell id="gJPejOsy9dFF1rbJm-w0-74" value="Setor" style="text;align=left;verticalAlign=top;spacingLeft=4;spacingRight=4;overflow=hidden;rotatable=0;points=[[0,0.5],[1,0.5]];portConstraint=eastwest;" parent="gJPejOsy9dFF1rbJm-w0-64" vertex="1">
          <mxGeometry y="260" width="230" height="26" as="geometry" />
        </mxCell>
        <mxCell id="gJPejOsy9dFF1rbJm-w0-150" value="Manual da Tarefa (.pdf)" style="text;align=left;verticalAlign=top;spacingLeft=4;spacingRight=4;overflow=hidden;rotatable=0;points=[[0,0.5],[1,0.5]];portConstraint=eastwest;" parent="gJPejOsy9dFF1rbJm-w0-64" vertex="1">
          <mxGeometry y="286" width="230" height="26" as="geometry" />
        </mxCell>
        <mxCell id="gJPejOsy9dFF1rbJm-w0-159" value="Planejamento SSN ou Calendário" style="text;align=left;verticalAlign=top;spacingLeft=4;spacingRight=4;overflow=hidden;rotatable=0;points=[[0,0.5],[1,0.5]];portConstraint=eastwest;" parent="gJPejOsy9dFF1rbJm-w0-64" vertex="1">
          <mxGeometry y="312" width="230" height="26" as="geometry" />
        </mxCell>
        <mxCell id="gJPejOsy9dFF1rbJm-w0-158" value="Horas Iniciais" style="text;align=left;verticalAlign=top;spacingLeft=4;spacingRight=4;overflow=hidden;rotatable=0;points=[[0,0.5],[1,0.5]];portConstraint=eastwest;" parent="gJPejOsy9dFF1rbJm-w0-64" vertex="1">
          <mxGeometry y="338" width="230" height="26" as="geometry" />
        </mxCell>
        <mxCell id="gJPejOsy9dFF1rbJm-w0-157" value="Tempo em Stand-by Intervalo" style="text;align=left;verticalAlign=top;spacingLeft=4;spacingRight=4;overflow=hidden;rotatable=0;points=[[0,0.5],[1,0.5]];portConstraint=eastwest;" parent="gJPejOsy9dFF1rbJm-w0-64" vertex="1">
          <mxGeometry y="364" width="230" height="26" as="geometry" />
        </mxCell>
        <mxCell id="gJPejOsy9dFF1rbJm-w0-163" value="Tempo em Stand-by Notificação" style="text;align=left;verticalAlign=top;spacingLeft=4;spacingRight=4;overflow=hidden;rotatable=0;points=[[0,0.5],[1,0.5]];portConstraint=eastwest;" parent="gJPejOsy9dFF1rbJm-w0-64" vertex="1">
          <mxGeometry y="390" width="230" height="26" as="geometry" />
        </mxCell>
        <mxCell id="gJPejOsy9dFF1rbJm-w0-162" value="Tempo em Stand-by Unidade" style="text;align=left;verticalAlign=top;spacingLeft=4;spacingRight=4;overflow=hidden;rotatable=0;points=[[0,0.5],[1,0.5]];portConstraint=eastwest;" parent="gJPejOsy9dFF1rbJm-w0-64" vertex="1">
          <mxGeometry y="416" width="230" height="26" as="geometry" />
        </mxCell>
        <mxCell id="gJPejOsy9dFF1rbJm-w0-161" value="Tempo em Produção Intervalo" style="text;align=left;verticalAlign=top;spacingLeft=4;spacingRight=4;overflow=hidden;rotatable=0;points=[[0,0.5],[1,0.5]];portConstraint=eastwest;" parent="gJPejOsy9dFF1rbJm-w0-64" vertex="1">
          <mxGeometry y="442" width="230" height="26" as="geometry" />
        </mxCell>
        <mxCell id="gJPejOsy9dFF1rbJm-w0-160" value="Tempo em Produção Notificação" style="text;align=left;verticalAlign=top;spacingLeft=4;spacingRight=4;overflow=hidden;rotatable=0;points=[[0,0.5],[1,0.5]];portConstraint=eastwest;" parent="gJPejOsy9dFF1rbJm-w0-64" vertex="1">
          <mxGeometry y="468" width="230" height="26" as="geometry" />
        </mxCell>
        <mxCell id="gJPejOsy9dFF1rbJm-w0-156" value="Tempo em Produção Unidade" style="text;align=left;verticalAlign=top;spacingLeft=4;spacingRight=4;overflow=hidden;rotatable=0;points=[[0,0.5],[1,0.5]];portConstraint=eastwest;" parent="gJPejOsy9dFF1rbJm-w0-64" vertex="1">
          <mxGeometry y="494" width="230" height="26" as="geometry" />
        </mxCell>
        <mxCell id="gJPejOsy9dFF1rbJm-w0-155" value="Unidades/Ciclos Intervalo" style="text;align=left;verticalAlign=top;spacingLeft=4;spacingRight=4;overflow=hidden;rotatable=0;points=[[0,0.5],[1,0.5]];portConstraint=eastwest;" parent="gJPejOsy9dFF1rbJm-w0-64" vertex="1">
          <mxGeometry y="520" width="230" height="26" as="geometry" />
        </mxCell>
        <mxCell id="gJPejOsy9dFF1rbJm-w0-154" value="Unidades/Ciclos Notificação" style="text;align=left;verticalAlign=top;spacingLeft=4;spacingRight=4;overflow=hidden;rotatable=0;points=[[0,0.5],[1,0.5]];portConstraint=eastwest;" parent="gJPejOsy9dFF1rbJm-w0-64" vertex="1">
          <mxGeometry y="546" width="230" height="26" as="geometry" />
        </mxCell>
        <mxCell id="gJPejOsy9dFF1rbJm-w0-153" value="Unidades/Ciclos Unidade" style="text;align=left;verticalAlign=top;spacingLeft=4;spacingRight=4;overflow=hidden;rotatable=0;points=[[0,0.5],[1,0.5]];portConstraint=eastwest;" parent="gJPejOsy9dFF1rbJm-w0-64" vertex="1">
          <mxGeometry y="572" width="230" height="26" as="geometry" />
        </mxCell>
        <mxCell id="gJPejOsy9dFF1rbJm-w0-152" value="Data e Hora Inicial" style="text;align=left;verticalAlign=top;spacingLeft=4;spacingRight=4;overflow=hidden;rotatable=0;points=[[0,0.5],[1,0.5]];portConstraint=eastwest;" parent="gJPejOsy9dFF1rbJm-w0-64" vertex="1">
          <mxGeometry y="598" width="230" height="26" as="geometry" />
        </mxCell>
        <mxCell id="gJPejOsy9dFF1rbJm-w0-169" value="Data e Hora Final" style="text;align=left;verticalAlign=top;spacingLeft=4;spacingRight=4;overflow=hidden;rotatable=0;points=[[0,0.5],[1,0.5]];portConstraint=eastwest;" parent="gJPejOsy9dFF1rbJm-w0-64" vertex="1">
          <mxGeometry y="624" width="230" height="26" as="geometry" />
        </mxCell>
        <mxCell id="gJPejOsy9dFF1rbJm-w0-168" value="Dia inteiro (boolean)" style="text;align=left;verticalAlign=top;spacingLeft=4;spacingRight=4;overflow=hidden;rotatable=0;points=[[0,0.5],[1,0.5]];portConstraint=eastwest;" parent="gJPejOsy9dFF1rbJm-w0-64" vertex="1">
          <mxGeometry y="650" width="230" height="26" as="geometry" />
        </mxCell>
        <mxCell id="gJPejOsy9dFF1rbJm-w0-167" value="Evento se repete:" style="text;align=left;verticalAlign=top;spacingLeft=4;spacingRight=4;overflow=hidden;rotatable=0;points=[[0,0.5],[1,0.5]];portConstraint=eastwest;" parent="gJPejOsy9dFF1rbJm-w0-64" vertex="1">
          <mxGeometry y="676" width="230" height="26" as="geometry" />
        </mxCell>
        <mxCell id="gJPejOsy9dFF1rbJm-w0-166" value="Dias a excluir da repetição" style="text;align=left;verticalAlign=top;spacingLeft=4;spacingRight=4;overflow=hidden;rotatable=0;points=[[0,0.5],[1,0.5]];portConstraint=eastwest;" parent="gJPejOsy9dFF1rbJm-w0-64" vertex="1">
          <mxGeometry y="702" width="230" height="26" as="geometry" />
        </mxCell>
        <mxCell id="gJPejOsy9dFF1rbJm-w0-75" value="" style="line;html=1;strokeWidth=1;align=left;verticalAlign=middle;spacingTop=-1;spacingLeft=3;spacingRight=3;rotatable=0;labelPosition=right;points=[];portConstraint=eastwest;" parent="gJPejOsy9dFF1rbJm-w0-64" vertex="1">
          <mxGeometry y="728" width="230" height="8" as="geometry" />
        </mxCell>
        <mxCell id="gJPejOsy9dFF1rbJm-w0-76" value="ObjectID da Máquina" style="text;align=left;verticalAlign=top;spacingLeft=4;spacingRight=4;overflow=hidden;rotatable=0;points=[[0,0.5],[1,0.5]];portConstraint=eastwest;fontStyle=4" parent="gJPejOsy9dFF1rbJm-w0-64" vertex="1">
          <mxGeometry y="736" width="230" height="26" as="geometry" />
        </mxCell>
        <mxCell id="gJPejOsy9dFF1rbJm-w0-83" value="ObjectID do Usuário" style="text;align=left;verticalAlign=top;spacingLeft=4;spacingRight=4;overflow=hidden;rotatable=0;points=[[0,0.5],[1,0.5]];portConstraint=eastwest;fontStyle=4" parent="gJPejOsy9dFF1rbJm-w0-64" vertex="1">
          <mxGeometry y="762" width="230" height="26" as="geometry" />
        </mxCell>
        <mxCell id="gJPejOsy9dFF1rbJm-w0-77" value="" style="endArrow=open;shadow=0;strokeWidth=1;rounded=0;curved=0;endFill=1;edgeStyle=elbowEdgeStyle;elbow=vertical;" parent="WIyWlLk6GJQsqaUBKTNV-1" source="gJPejOsy9dFF1rbJm-w0-37" edge="1">
          <mxGeometry x="0.5" y="41" relative="1" as="geometry">
            <mxPoint x="-3109" y="-1075" as="sourcePoint" />
            <mxPoint x="-2479" y="-1175" as="targetPoint" />
            <mxPoint x="-40" y="32" as="offset" />
            <Array as="points">
              <mxPoint x="-2629" y="-1175" />
            </Array>
          </mxGeometry>
        </mxCell>
        <mxCell id="gJPejOsy9dFF1rbJm-w0-78" value="N" style="resizable=0;align=left;verticalAlign=bottom;labelBackgroundColor=none;fontSize=12;" parent="gJPejOsy9dFF1rbJm-w0-77" connectable="0" vertex="1">
          <mxGeometry x="-1" relative="1" as="geometry">
            <mxPoint as="offset" />
          </mxGeometry>
        </mxCell>
        <mxCell id="gJPejOsy9dFF1rbJm-w0-79" value="1" style="resizable=0;align=right;verticalAlign=bottom;labelBackgroundColor=none;fontSize=12;" parent="gJPejOsy9dFF1rbJm-w0-77" connectable="0" vertex="1">
          <mxGeometry x="1" relative="1" as="geometry">
            <mxPoint x="-10" as="offset" />
          </mxGeometry>
        </mxCell>
        <mxCell id="gJPejOsy9dFF1rbJm-w0-80" value="Criar Tarefa" style="text;html=1;resizable=0;points=[];;align=center;verticalAlign=middle;labelBackgroundColor=none;rounded=0;shadow=0;strokeWidth=1;fontSize=12;" parent="gJPejOsy9dFF1rbJm-w0-77" vertex="1" connectable="0">
          <mxGeometry x="0.5" y="49" relative="1" as="geometry">
            <mxPoint x="-118" y="39" as="offset" />
          </mxGeometry>
        </mxCell>
        <mxCell id="gJPejOsy9dFF1rbJm-w0-84" value="" style="endArrow=open;shadow=0;strokeWidth=1;rounded=0;curved=0;endFill=1;edgeStyle=elbowEdgeStyle;elbow=vertical;" parent="WIyWlLk6GJQsqaUBKTNV-1" source="gJPejOsy9dFF1rbJm-w0-17" target="gJPejOsy9dFF1rbJm-w0-0" edge="1">
          <mxGeometry x="0.5" y="41" relative="1" as="geometry">
            <mxPoint x="-2070" y="-1860" as="sourcePoint" />
            <mxPoint x="-1520" y="-1860" as="targetPoint" />
            <mxPoint x="-40" y="32" as="offset" />
            <Array as="points">
              <mxPoint x="-1600" y="-2060" />
              <mxPoint x="-2140" y="-1970" />
            </Array>
          </mxGeometry>
        </mxCell>
        <mxCell id="gJPejOsy9dFF1rbJm-w0-85" value="N" style="resizable=0;align=left;verticalAlign=bottom;labelBackgroundColor=none;fontSize=12;" parent="gJPejOsy9dFF1rbJm-w0-84" connectable="0" vertex="1">
          <mxGeometry x="-1" relative="1" as="geometry">
            <mxPoint x="-20" as="offset" />
          </mxGeometry>
        </mxCell>
        <mxCell id="gJPejOsy9dFF1rbJm-w0-86" value="1" style="resizable=0;align=right;verticalAlign=bottom;labelBackgroundColor=none;fontSize=12;" parent="gJPejOsy9dFF1rbJm-w0-84" connectable="0" vertex="1">
          <mxGeometry x="1" relative="1" as="geometry">
            <mxPoint x="30" as="offset" />
          </mxGeometry>
        </mxCell>
        <mxCell id="gJPejOsy9dFF1rbJm-w0-87" value="Criar Tarefa" style="text;html=1;resizable=0;points=[];;align=center;verticalAlign=middle;labelBackgroundColor=none;rounded=0;shadow=0;strokeWidth=1;fontSize=12;" parent="gJPejOsy9dFF1rbJm-w0-84" vertex="1" connectable="0">
          <mxGeometry x="0.5" y="49" relative="1" as="geometry">
            <mxPoint x="40" y="-59" as="offset" />
          </mxGeometry>
        </mxCell>
        <mxCell id="gJPejOsy9dFF1rbJm-w0-89" value="" style="endArrow=open;shadow=0;strokeWidth=1;rounded=0;curved=0;endFill=1;edgeStyle=elbowEdgeStyle;elbow=vertical;" parent="WIyWlLk6GJQsqaUBKTNV-1" source="gJPejOsy9dFF1rbJm-w0-17" target="gJPejOsy9dFF1rbJm-w0-64" edge="1">
          <mxGeometry x="0.5" y="41" relative="1" as="geometry">
            <mxPoint x="-1649.5" y="-1524.9999999999995" as="sourcePoint" />
            <mxPoint x="-2255.5" y="-1379" as="targetPoint" />
            <mxPoint x="-40" y="32" as="offset" />
            <Array as="points">
              <mxPoint x="-1230" y="-880" />
              <mxPoint x="-1570" y="-970" />
            </Array>
          </mxGeometry>
        </mxCell>
        <mxCell id="gJPejOsy9dFF1rbJm-w0-90" value="N" style="resizable=0;align=left;verticalAlign=bottom;labelBackgroundColor=none;fontSize=12;" parent="gJPejOsy9dFF1rbJm-w0-89" connectable="0" vertex="1">
          <mxGeometry x="-1" relative="1" as="geometry">
            <mxPoint x="-20" y="26" as="offset" />
          </mxGeometry>
        </mxCell>
        <mxCell id="gJPejOsy9dFF1rbJm-w0-91" value="1" style="resizable=0;align=right;verticalAlign=bottom;labelBackgroundColor=none;fontSize=12;" parent="gJPejOsy9dFF1rbJm-w0-89" connectable="0" vertex="1">
          <mxGeometry x="1" relative="1" as="geometry">
            <mxPoint x="30" as="offset" />
          </mxGeometry>
        </mxCell>
        <mxCell id="gJPejOsy9dFF1rbJm-w0-92" value="Criar Tarefa" style="text;html=1;resizable=0;points=[];;align=center;verticalAlign=middle;labelBackgroundColor=none;rounded=0;shadow=0;strokeWidth=1;fontSize=12;" parent="gJPejOsy9dFF1rbJm-w0-89" vertex="1" connectable="0">
          <mxGeometry x="0.5" y="49" relative="1" as="geometry">
            <mxPoint x="158" y="-59" as="offset" />
          </mxGeometry>
        </mxCell>
        <mxCell id="gJPejOsy9dFF1rbJm-w0-93" value="Setor Operacional" style="swimlane;fontStyle=0;align=center;verticalAlign=top;childLayout=stackLayout;horizontal=1;startSize=26;horizontalStack=0;resizeParent=1;resizeLast=0;collapsible=1;marginBottom=0;rounded=0;shadow=0;strokeWidth=1;" parent="WIyWlLk6GJQsqaUBKTNV-1" vertex="1">
          <mxGeometry x="-2840" y="-1030" width="210" height="118" as="geometry">
            <mxRectangle x="550" y="499" width="170" height="26" as="alternateBounds" />
          </mxGeometry>
        </mxCell>
        <mxCell id="gJPejOsy9dFF1rbJm-w0-94" value="ObjectID do Setor Operacional" style="text;align=left;verticalAlign=top;spacingLeft=4;spacingRight=4;overflow=hidden;rotatable=0;points=[[0,0.5],[1,0.5]];portConstraint=eastwest;fontStyle=4" parent="gJPejOsy9dFF1rbJm-w0-93" vertex="1">
          <mxGeometry y="26" width="210" height="26" as="geometry" />
        </mxCell>
        <mxCell id="gJPejOsy9dFF1rbJm-w0-99" value="Nome do Setor Operacional" style="text;align=left;verticalAlign=top;spacingLeft=4;spacingRight=4;overflow=hidden;rotatable=0;points=[[0,0.5],[1,0.5]];portConstraint=eastwest;" parent="gJPejOsy9dFF1rbJm-w0-93" vertex="1">
          <mxGeometry y="52" width="210" height="26" as="geometry" />
        </mxCell>
        <mxCell id="gJPejOsy9dFF1rbJm-w0-95" value="" style="line;html=1;strokeWidth=1;align=left;verticalAlign=middle;spacingTop=-1;spacingLeft=3;spacingRight=3;rotatable=0;labelPosition=right;points=[];portConstraint=eastwest;" parent="gJPejOsy9dFF1rbJm-w0-93" vertex="1">
          <mxGeometry y="78" width="210" height="8" as="geometry" />
        </mxCell>
        <mxCell id="gJPejOsy9dFF1rbJm-w0-142" value="" style="endArrow=open;shadow=0;strokeWidth=1;rounded=0;curved=0;endFill=1;edgeStyle=elbowEdgeStyle;elbow=vertical;" parent="WIyWlLk6GJQsqaUBKTNV-1" source="gJPejOsy9dFF1rbJm-w0-21" target="gJPejOsy9dFF1rbJm-w0-0" edge="1">
          <mxGeometry x="0.5" y="41" relative="1" as="geometry">
            <mxPoint x="-2715" y="-1796" as="sourcePoint" />
            <mxPoint x="-2364" y="-1800" as="targetPoint" />
            <mxPoint x="-40" y="32" as="offset" />
            <Array as="points">
              <mxPoint x="-2600" y="-1800" />
              <mxPoint x="-2460" y="-1850" />
            </Array>
          </mxGeometry>
        </mxCell>
        <mxCell id="gJPejOsy9dFF1rbJm-w0-143" value="N" style="resizable=0;align=left;verticalAlign=bottom;labelBackgroundColor=none;fontSize=12;" parent="gJPejOsy9dFF1rbJm-w0-142" connectable="0" vertex="1">
          <mxGeometry x="-1" relative="1" as="geometry">
            <mxPoint x="25" as="offset" />
          </mxGeometry>
        </mxCell>
        <mxCell id="gJPejOsy9dFF1rbJm-w0-144" value="1" style="resizable=0;align=right;verticalAlign=bottom;labelBackgroundColor=none;fontSize=12;" parent="gJPejOsy9dFF1rbJm-w0-142" connectable="0" vertex="1">
          <mxGeometry x="1" relative="1" as="geometry">
            <mxPoint x="-21" as="offset" />
          </mxGeometry>
        </mxCell>
        <mxCell id="gJPejOsy9dFF1rbJm-w0-145" value="Criar Tarefa" style="text;html=1;resizable=0;points=[];;align=center;verticalAlign=middle;labelBackgroundColor=none;rounded=0;shadow=0;strokeWidth=1;fontSize=12;" parent="gJPejOsy9dFF1rbJm-w0-142" vertex="1" connectable="0">
          <mxGeometry x="0.5" y="49" relative="1" as="geometry">
            <mxPoint x="-60" y="39" as="offset" />
          </mxGeometry>
        </mxCell>
        <mxCell id="gJPejOsy9dFF1rbJm-w0-175" value="Área Técnica" style="swimlane;fontStyle=0;align=center;verticalAlign=top;childLayout=stackLayout;horizontal=1;startSize=26;horizontalStack=0;resizeParent=1;resizeLast=0;collapsible=1;marginBottom=0;rounded=0;shadow=0;strokeWidth=1;" parent="WIyWlLk6GJQsqaUBKTNV-1" vertex="1">
          <mxGeometry x="-1560" y="-1040" width="242" height="112" as="geometry">
            <mxRectangle x="340" y="380" width="170" height="26" as="alternateBounds" />
          </mxGeometry>
        </mxCell>
        <mxCell id="gJPejOsy9dFF1rbJm-w0-179" value="ObjectID do Área Técnica" style="text;align=left;verticalAlign=top;spacingLeft=4;spacingRight=4;overflow=hidden;rotatable=0;points=[[0,0.5],[1,0.5]];portConstraint=eastwest;fontStyle=4" parent="gJPejOsy9dFF1rbJm-w0-175" vertex="1">
          <mxGeometry y="26" width="242" height="26" as="geometry" />
        </mxCell>
        <mxCell id="gJPejOsy9dFF1rbJm-w0-180" value="Nome do Área Técnica" style="text;align=left;verticalAlign=top;spacingLeft=4;spacingRight=4;overflow=hidden;rotatable=0;points=[[0,0.5],[1,0.5]];portConstraint=eastwest;" parent="gJPejOsy9dFF1rbJm-w0-175" vertex="1">
          <mxGeometry y="52" width="242" height="26" as="geometry" />
        </mxCell>
        <mxCell id="gJPejOsy9dFF1rbJm-w0-177" value="" style="line;html=1;strokeWidth=1;align=left;verticalAlign=middle;spacingTop=-1;spacingLeft=3;spacingRight=3;rotatable=0;labelPosition=right;points=[];portConstraint=eastwest;" parent="gJPejOsy9dFF1rbJm-w0-175" vertex="1">
          <mxGeometry y="78" width="242" height="8" as="geometry" />
        </mxCell>
        <mxCell id="gJPejOsy9dFF1rbJm-w0-181" value="" style="endArrow=open;shadow=0;strokeWidth=1;rounded=0;curved=0;endFill=1;edgeStyle=elbowEdgeStyle;elbow=vertical;" parent="WIyWlLk6GJQsqaUBKTNV-1" source="gJPejOsy9dFF1rbJm-w0-175" target="gJPejOsy9dFF1rbJm-w0-64" edge="1">
          <mxGeometry x="0.5" y="41" relative="1" as="geometry">
            <mxPoint x="-2032" y="-1275" as="sourcePoint" />
            <mxPoint x="-2310" y="-1490" as="targetPoint" />
            <mxPoint x="-40" y="32" as="offset" />
            <Array as="points">
              <mxPoint x="-1670" y="-970" />
            </Array>
          </mxGeometry>
        </mxCell>
        <mxCell id="gJPejOsy9dFF1rbJm-w0-182" value="N" style="resizable=0;align=left;verticalAlign=bottom;labelBackgroundColor=none;fontSize=12;" parent="gJPejOsy9dFF1rbJm-w0-181" connectable="0" vertex="1">
          <mxGeometry x="-1" relative="1" as="geometry">
            <mxPoint x="-20" as="offset" />
          </mxGeometry>
        </mxCell>
        <mxCell id="gJPejOsy9dFF1rbJm-w0-183" value="1" style="resizable=0;align=right;verticalAlign=bottom;labelBackgroundColor=none;fontSize=12;" parent="gJPejOsy9dFF1rbJm-w0-181" connectable="0" vertex="1">
          <mxGeometry x="1" relative="1" as="geometry">
            <mxPoint x="30" as="offset" />
          </mxGeometry>
        </mxCell>
        <mxCell id="gJPejOsy9dFF1rbJm-w0-184" value="Criar Tarefa" style="text;html=1;resizable=0;points=[];;align=center;verticalAlign=middle;labelBackgroundColor=none;rounded=0;shadow=0;strokeWidth=1;fontSize=12;" parent="gJPejOsy9dFF1rbJm-w0-181" vertex="1" connectable="0">
          <mxGeometry x="0.5" y="49" relative="1" as="geometry">
            <mxPoint x="81" y="-59" as="offset" />
          </mxGeometry>
        </mxCell>
        <mxCell id="gJPejOsy9dFF1rbJm-w0-185" value="" style="endArrow=open;shadow=0;strokeWidth=1;rounded=0;curved=0;endFill=1;edgeStyle=elbowEdgeStyle;elbow=vertical;" parent="WIyWlLk6GJQsqaUBKTNV-1" source="gJPejOsy9dFF1rbJm-w0-21" edge="1">
          <mxGeometry x="0.5" y="41" relative="1" as="geometry">
            <mxPoint x="-2766" y="-1510" as="sourcePoint" />
            <mxPoint x="-2480" y="-1510" as="targetPoint" />
            <mxPoint x="-40" y="32" as="offset" />
            <Array as="points">
              <mxPoint x="-2601" y="-1510" />
              <mxPoint x="-2461" y="-1560" />
            </Array>
          </mxGeometry>
        </mxCell>
        <mxCell id="gJPejOsy9dFF1rbJm-w0-186" value="N" style="resizable=0;align=left;verticalAlign=bottom;labelBackgroundColor=none;fontSize=12;" parent="gJPejOsy9dFF1rbJm-w0-185" connectable="0" vertex="1">
          <mxGeometry x="-1" relative="1" as="geometry">
            <mxPoint x="15" as="offset" />
          </mxGeometry>
        </mxCell>
        <mxCell id="gJPejOsy9dFF1rbJm-w0-187" value="1" style="resizable=0;align=right;verticalAlign=bottom;labelBackgroundColor=none;fontSize=12;" parent="gJPejOsy9dFF1rbJm-w0-185" connectable="0" vertex="1">
          <mxGeometry x="1" relative="1" as="geometry">
            <mxPoint x="-20" as="offset" />
          </mxGeometry>
        </mxCell>
        <mxCell id="gJPejOsy9dFF1rbJm-w0-188" value="Criar Tarefa" style="text;html=1;resizable=0;points=[];;align=center;verticalAlign=middle;labelBackgroundColor=none;rounded=0;shadow=0;strokeWidth=1;fontSize=12;" parent="gJPejOsy9dFF1rbJm-w0-185" vertex="1" connectable="0">
          <mxGeometry x="0.5" y="49" relative="1" as="geometry">
            <mxPoint x="-59" y="39" as="offset" />
          </mxGeometry>
        </mxCell>
        <mxCell id="gJPejOsy9dFF1rbJm-w0-189" value="" style="endArrow=open;shadow=0;strokeWidth=1;rounded=0;curved=0;endFill=1;edgeStyle=elbowEdgeStyle;elbow=vertical;" parent="WIyWlLk6GJQsqaUBKTNV-1" source="gJPejOsy9dFF1rbJm-w0-175" target="gJPejOsy9dFF1rbJm-w0-17" edge="1">
          <mxGeometry x="0.5" y="41" relative="1" as="geometry">
            <mxPoint x="-1772" y="-1440" as="sourcePoint" />
            <mxPoint x="-2050" y="-1440" as="targetPoint" />
            <mxPoint x="-40" y="32" as="offset" />
            <Array as="points">
              <mxPoint x="-1380" y="-1370" />
            </Array>
          </mxGeometry>
        </mxCell>
        <mxCell id="gJPejOsy9dFF1rbJm-w0-190" value="N" style="resizable=0;align=left;verticalAlign=bottom;labelBackgroundColor=none;fontSize=12;" parent="gJPejOsy9dFF1rbJm-w0-189" connectable="0" vertex="1">
          <mxGeometry x="-1" relative="1" as="geometry">
            <mxPoint x="-20" as="offset" />
          </mxGeometry>
        </mxCell>
        <mxCell id="gJPejOsy9dFF1rbJm-w0-191" value="1" style="resizable=0;align=right;verticalAlign=bottom;labelBackgroundColor=none;fontSize=12;" parent="gJPejOsy9dFF1rbJm-w0-189" connectable="0" vertex="1">
          <mxGeometry x="1" relative="1" as="geometry">
            <mxPoint x="30" as="offset" />
          </mxGeometry>
        </mxCell>
        <mxCell id="gJPejOsy9dFF1rbJm-w0-192" value="Criar Tarefa" style="text;html=1;resizable=0;points=[];;align=center;verticalAlign=middle;labelBackgroundColor=none;rounded=0;shadow=0;strokeWidth=1;fontSize=12;" parent="gJPejOsy9dFF1rbJm-w0-189" vertex="1" connectable="0">
          <mxGeometry x="0.5" y="49" relative="1" as="geometry">
            <mxPoint x="9" y="101" as="offset" />
          </mxGeometry>
        </mxCell>
        <mxCell id="gJPejOsy9dFF1rbJm-w0-193" value="" style="endArrow=open;shadow=0;strokeWidth=1;rounded=0;curved=0;endFill=1;edgeStyle=elbowEdgeStyle;elbow=vertical;exitX=0.149;exitY=-0.007;exitDx=0;exitDy=0;exitPerimeter=0;" parent="WIyWlLk6GJQsqaUBKTNV-1" source="gJPejOsy9dFF1rbJm-w0-175" target="gJPejOsy9dFF1rbJm-w0-0" edge="1">
          <mxGeometry x="0.5" y="41" relative="1" as="geometry">
            <mxPoint x="-2090" y="-1424" as="sourcePoint" />
            <mxPoint x="-1884" y="-1710" as="targetPoint" />
            <mxPoint x="-40" y="32" as="offset" />
            <Array as="points">
              <mxPoint x="-1460" y="-1960" />
              <mxPoint x="-1910" y="-1770" />
            </Array>
          </mxGeometry>
        </mxCell>
        <mxCell id="gJPejOsy9dFF1rbJm-w0-194" value="N" style="resizable=0;align=left;verticalAlign=bottom;labelBackgroundColor=none;fontSize=12;" parent="gJPejOsy9dFF1rbJm-w0-193" connectable="0" vertex="1">
          <mxGeometry x="-1" relative="1" as="geometry">
            <mxPoint x="-20" as="offset" />
          </mxGeometry>
        </mxCell>
        <mxCell id="gJPejOsy9dFF1rbJm-w0-195" value="1" style="resizable=0;align=right;verticalAlign=bottom;labelBackgroundColor=none;fontSize=12;" parent="gJPejOsy9dFF1rbJm-w0-193" connectable="0" vertex="1">
          <mxGeometry x="1" relative="1" as="geometry">
            <mxPoint x="30" as="offset" />
          </mxGeometry>
        </mxCell>
        <mxCell id="gJPejOsy9dFF1rbJm-w0-196" value="Criar Tarefa" style="text;html=1;resizable=0;points=[];;align=center;verticalAlign=middle;labelBackgroundColor=none;rounded=0;shadow=0;strokeWidth=1;fontSize=12;" parent="gJPejOsy9dFF1rbJm-w0-193" vertex="1" connectable="0">
          <mxGeometry x="0.5" y="49" relative="1" as="geometry">
            <mxPoint x="239" y="31" as="offset" />
          </mxGeometry>
        </mxCell>
        <mxCell id="gJPejOsy9dFF1rbJm-w0-201" value="" style="endArrow=open;shadow=0;strokeWidth=1;rounded=0;curved=0;endFill=1;edgeStyle=elbowEdgeStyle;elbow=vertical;" parent="WIyWlLk6GJQsqaUBKTNV-1" source="gJPejOsy9dFF1rbJm-w0-93" target="gJPejOsy9dFF1rbJm-w0-37" edge="1">
          <mxGeometry x="0.5" y="41" relative="1" as="geometry">
            <mxPoint x="-2861.5" y="-960" as="sourcePoint" />
            <mxPoint x="-3358.5" y="-960" as="targetPoint" />
            <mxPoint x="-40" y="32" as="offset" />
            <Array as="points">
              <mxPoint x="-3110" y="-990" />
            </Array>
          </mxGeometry>
        </mxCell>
        <mxCell id="gJPejOsy9dFF1rbJm-w0-202" value="N" style="resizable=0;align=left;verticalAlign=bottom;labelBackgroundColor=none;fontSize=12;" parent="gJPejOsy9dFF1rbJm-w0-201" connectable="0" vertex="1">
          <mxGeometry x="-1" relative="1" as="geometry">
            <mxPoint x="-20" as="offset" />
          </mxGeometry>
        </mxCell>
        <mxCell id="gJPejOsy9dFF1rbJm-w0-203" value="1" style="resizable=0;align=right;verticalAlign=bottom;labelBackgroundColor=none;fontSize=12;" parent="gJPejOsy9dFF1rbJm-w0-201" connectable="0" vertex="1">
          <mxGeometry x="1" relative="1" as="geometry">
            <mxPoint x="10" y="26" as="offset" />
          </mxGeometry>
        </mxCell>
        <mxCell id="gJPejOsy9dFF1rbJm-w0-204" value="Criar Tarefa" style="text;html=1;resizable=0;points=[];;align=center;verticalAlign=middle;labelBackgroundColor=none;rounded=0;shadow=0;strokeWidth=1;fontSize=12;" parent="gJPejOsy9dFF1rbJm-w0-201" vertex="1" connectable="0">
          <mxGeometry x="0.5" y="49" relative="1" as="geometry">
            <mxPoint x="96" y="-59" as="offset" />
          </mxGeometry>
        </mxCell>
        <mxCell id="jGJi-CPYWdbejaYZ_Ewa-0" value="Fornecedores" style="swimlane;fontStyle=0;align=center;verticalAlign=top;childLayout=stackLayout;horizontal=1;startSize=26;horizontalStack=0;resizeParent=1;resizeLast=0;collapsible=1;marginBottom=0;rounded=0;shadow=0;strokeWidth=1;" vertex="1" parent="WIyWlLk6GJQsqaUBKTNV-1">
          <mxGeometry x="-1890" y="-1789.5" width="290" height="279" as="geometry">
            <mxRectangle x="340" y="380" width="170" height="26" as="alternateBounds" />
          </mxGeometry>
        </mxCell>
        <mxCell id="jGJi-CPYWdbejaYZ_Ewa-1" value="Nome da Empresa" style="text;align=left;verticalAlign=top;spacingLeft=4;spacingRight=4;overflow=hidden;rotatable=0;points=[[0,0.5],[1,0.5]];portConstraint=eastwest;" vertex="1" parent="jGJi-CPYWdbejaYZ_Ewa-0">
          <mxGeometry y="26" width="290" height="26" as="geometry" />
        </mxCell>
        <mxCell id="jGJi-CPYWdbejaYZ_Ewa-11" value="CNPJ" style="text;align=left;verticalAlign=top;spacingLeft=4;spacingRight=4;overflow=hidden;rotatable=0;points=[[0,0.5],[1,0.5]];portConstraint=eastwest;" vertex="1" parent="jGJi-CPYWdbejaYZ_Ewa-0">
          <mxGeometry y="52" width="290" height="26" as="geometry" />
        </mxCell>
        <mxCell id="jGJi-CPYWdbejaYZ_Ewa-10" value="Email da Empresa" style="text;align=left;verticalAlign=top;spacingLeft=4;spacingRight=4;overflow=hidden;rotatable=0;points=[[0,0.5],[1,0.5]];portConstraint=eastwest;" vertex="1" parent="jGJi-CPYWdbejaYZ_Ewa-0">
          <mxGeometry y="78" width="290" height="26" as="geometry" />
        </mxCell>
        <mxCell id="jGJi-CPYWdbejaYZ_Ewa-9" value="Telefone" style="text;align=left;verticalAlign=top;spacingLeft=4;spacingRight=4;overflow=hidden;rotatable=0;points=[[0,0.5],[1,0.5]];portConstraint=eastwest;" vertex="1" parent="jGJi-CPYWdbejaYZ_Ewa-0">
          <mxGeometry y="104" width="290" height="26" as="geometry" />
        </mxCell>
        <mxCell id="jGJi-CPYWdbejaYZ_Ewa-8" value="Site" style="text;align=left;verticalAlign=top;spacingLeft=4;spacingRight=4;overflow=hidden;rotatable=0;points=[[0,0.5],[1,0.5]];portConstraint=eastwest;" vertex="1" parent="jGJi-CPYWdbejaYZ_Ewa-0">
          <mxGeometry y="130" width="290" height="26" as="geometry" />
        </mxCell>
        <mxCell id="jGJi-CPYWdbejaYZ_Ewa-7" value="Nome e Sobrenome da Pessoa de Contato" style="text;align=left;verticalAlign=top;spacingLeft=4;spacingRight=4;overflow=hidden;rotatable=0;points=[[0,0.5],[1,0.5]];portConstraint=eastwest;" vertex="1" parent="jGJi-CPYWdbejaYZ_Ewa-0">
          <mxGeometry y="156" width="290" height="26" as="geometry" />
        </mxCell>
        <mxCell id="jGJi-CPYWdbejaYZ_Ewa-6" value="Telefone da Pessoa de Contato" style="text;align=left;verticalAlign=top;spacingLeft=4;spacingRight=4;overflow=hidden;rotatable=0;points=[[0,0.5],[1,0.5]];portConstraint=eastwest;" vertex="1" parent="jGJi-CPYWdbejaYZ_Ewa-0">
          <mxGeometry y="182" width="290" height="26" as="geometry" />
        </mxCell>
        <mxCell id="jGJi-CPYWdbejaYZ_Ewa-5" value="Email da Pessoa de Contato" style="text;align=left;verticalAlign=top;spacingLeft=4;spacingRight=4;overflow=hidden;rotatable=0;points=[[0,0.5],[1,0.5]];portConstraint=eastwest;" vertex="1" parent="jGJi-CPYWdbejaYZ_Ewa-0">
          <mxGeometry y="208" width="290" height="26" as="geometry" />
        </mxCell>
        <mxCell id="jGJi-CPYWdbejaYZ_Ewa-2" value="" style="line;html=1;strokeWidth=1;align=left;verticalAlign=middle;spacingTop=-1;spacingLeft=3;spacingRight=3;rotatable=0;labelPosition=right;points=[];portConstraint=eastwest;" vertex="1" parent="jGJi-CPYWdbejaYZ_Ewa-0">
          <mxGeometry y="234" width="290" height="8" as="geometry" />
        </mxCell>
        <mxCell id="jGJi-CPYWdbejaYZ_Ewa-17" value="Técnico Externo" style="swimlane;fontStyle=0;align=center;verticalAlign=top;childLayout=stackLayout;horizontal=1;startSize=26;horizontalStack=0;resizeParent=1;resizeLast=0;collapsible=1;marginBottom=0;rounded=0;shadow=0;strokeWidth=1;" vertex="1" parent="WIyWlLk6GJQsqaUBKTNV-1">
          <mxGeometry x="-2020" y="-1260" width="280" height="190" as="geometry">
            <mxRectangle x="340" y="380" width="170" height="26" as="alternateBounds" />
          </mxGeometry>
        </mxCell>
        <mxCell id="jGJi-CPYWdbejaYZ_Ewa-4" value="Nome do Técnico Externo" style="text;align=left;verticalAlign=top;spacingLeft=4;spacingRight=4;overflow=hidden;rotatable=0;points=[[0,0.5],[1,0.5]];portConstraint=eastwest;" vertex="1" parent="jGJi-CPYWdbejaYZ_Ewa-17">
          <mxGeometry y="26" width="280" height="26" as="geometry" />
        </mxCell>
        <mxCell id="jGJi-CPYWdbejaYZ_Ewa-13" value="Celular do Técnico Externo" style="text;align=left;verticalAlign=top;spacingLeft=4;spacingRight=4;overflow=hidden;rotatable=0;points=[[0,0.5],[1,0.5]];portConstraint=eastwest;" vertex="1" parent="jGJi-CPYWdbejaYZ_Ewa-17">
          <mxGeometry y="52" width="280" height="26" as="geometry" />
        </mxCell>
        <mxCell id="jGJi-CPYWdbejaYZ_Ewa-14" value="Telefone do Técnico Externo" style="text;align=left;verticalAlign=top;spacingLeft=4;spacingRight=4;overflow=hidden;rotatable=0;points=[[0,0.5],[1,0.5]];portConstraint=eastwest;" vertex="1" parent="jGJi-CPYWdbejaYZ_Ewa-17">
          <mxGeometry y="78" width="280" height="26" as="geometry" />
        </mxCell>
        <mxCell id="jGJi-CPYWdbejaYZ_Ewa-15" value="Valor da Hora do Técnico Externo" style="text;align=left;verticalAlign=top;spacingLeft=4;spacingRight=4;overflow=hidden;rotatable=0;points=[[0,0.5],[1,0.5]];portConstraint=eastwest;" vertex="1" parent="jGJi-CPYWdbejaYZ_Ewa-17">
          <mxGeometry y="104" width="280" height="26" as="geometry" />
        </mxCell>
        <mxCell id="jGJi-CPYWdbejaYZ_Ewa-16" value="Área de Atuação do Técnico Externo" style="text;align=left;verticalAlign=top;spacingLeft=4;spacingRight=4;overflow=hidden;rotatable=0;points=[[0,0.5],[1,0.5]];portConstraint=eastwest;" vertex="1" parent="jGJi-CPYWdbejaYZ_Ewa-17">
          <mxGeometry y="130" width="280" height="26" as="geometry" />
        </mxCell>
        <mxCell id="jGJi-CPYWdbejaYZ_Ewa-19" value="" style="line;html=1;strokeWidth=1;align=left;verticalAlign=middle;spacingTop=-1;spacingLeft=3;spacingRight=3;rotatable=0;labelPosition=right;points=[];portConstraint=eastwest;" vertex="1" parent="jGJi-CPYWdbejaYZ_Ewa-17">
          <mxGeometry y="156" width="280" height="8" as="geometry" />
        </mxCell>
        <mxCell id="jGJi-CPYWdbejaYZ_Ewa-21" value="" style="endArrow=open;shadow=0;strokeWidth=1;rounded=0;curved=0;endFill=1;edgeStyle=elbowEdgeStyle;elbow=vertical;exitX=1;exitY=0.5;exitDx=0;exitDy=0;entryX=0.75;entryY=1;entryDx=0;entryDy=0;" edge="1" parent="WIyWlLk6GJQsqaUBKTNV-1" source="jGJi-CPYWdbejaYZ_Ewa-14" target="jGJi-CPYWdbejaYZ_Ewa-0">
          <mxGeometry x="0.5" y="41" relative="1" as="geometry">
            <mxPoint x="-1600" y="-828" as="sourcePoint" />
            <mxPoint x="-1630" y="-1530" as="targetPoint" />
            <mxPoint x="-40" y="32" as="offset" />
            <Array as="points">
              <mxPoint x="-1640" y="-1179" />
            </Array>
          </mxGeometry>
        </mxCell>
        <mxCell id="jGJi-CPYWdbejaYZ_Ewa-22" value="N" style="resizable=0;align=left;verticalAlign=bottom;labelBackgroundColor=none;fontSize=12;" connectable="0" vertex="1" parent="jGJi-CPYWdbejaYZ_Ewa-21">
          <mxGeometry x="-1" relative="1" as="geometry">
            <mxPoint x="10" y="-10" as="offset" />
          </mxGeometry>
        </mxCell>
        <mxCell id="jGJi-CPYWdbejaYZ_Ewa-23" value="1" style="resizable=0;align=right;verticalAlign=bottom;labelBackgroundColor=none;fontSize=12;" connectable="0" vertex="1" parent="jGJi-CPYWdbejaYZ_Ewa-21">
          <mxGeometry x="1" relative="1" as="geometry">
            <mxPoint x="-5" y="31" as="offset" />
          </mxGeometry>
        </mxCell>
        <mxCell id="jGJi-CPYWdbejaYZ_Ewa-24" value="Criar Fornecedor" style="text;html=1;resizable=0;points=[];;align=center;verticalAlign=middle;labelBackgroundColor=none;rounded=0;shadow=0;strokeWidth=1;fontSize=12;" vertex="1" connectable="0" parent="jGJi-CPYWdbejaYZ_Ewa-21">
          <mxGeometry x="0.5" y="49" relative="1" as="geometry">
            <mxPoint x="-8" y="51" as="offset" />
          </mxGeometry>
        </mxCell>
        <mxCell id="jGJi-CPYWdbejaYZ_Ewa-25" value="" style="endArrow=open;shadow=0;strokeWidth=1;rounded=0;curved=0;endFill=1;edgeStyle=elbowEdgeStyle;elbow=vertical;exitX=0.214;exitY=0.017;exitDx=0;exitDy=0;exitPerimeter=0;" edge="1" parent="WIyWlLk6GJQsqaUBKTNV-1" target="gJPejOsy9dFF1rbJm-w0-0">
          <mxGeometry x="0.5" y="41" relative="1" as="geometry">
            <mxPoint x="-1951.0800000000004" y="-1270" as="sourcePoint" />
            <mxPoint x="-2200" y="-1813.23" as="targetPoint" />
            <mxPoint x="-40" y="32" as="offset" />
            <Array as="points">
              <mxPoint x="-2110" y="-1800" />
              <mxPoint x="-1921" y="-1813.23" />
            </Array>
          </mxGeometry>
        </mxCell>
        <mxCell id="jGJi-CPYWdbejaYZ_Ewa-26" value="N" style="resizable=0;align=left;verticalAlign=bottom;labelBackgroundColor=none;fontSize=12;" connectable="0" vertex="1" parent="jGJi-CPYWdbejaYZ_Ewa-25">
          <mxGeometry x="-1" relative="1" as="geometry">
            <mxPoint x="-15" y="-10" as="offset" />
          </mxGeometry>
        </mxCell>
        <mxCell id="jGJi-CPYWdbejaYZ_Ewa-27" value="N" style="resizable=0;align=right;verticalAlign=bottom;labelBackgroundColor=none;fontSize=12;" connectable="0" vertex="1" parent="jGJi-CPYWdbejaYZ_Ewa-25">
          <mxGeometry x="1" relative="1" as="geometry">
            <mxPoint x="39" y="-7" as="offset" />
          </mxGeometry>
        </mxCell>
        <mxCell id="jGJi-CPYWdbejaYZ_Ewa-28" value="Criar Tarefa" style="text;html=1;resizable=0;points=[];;align=center;verticalAlign=middle;labelBackgroundColor=none;rounded=0;shadow=0;strokeWidth=1;fontSize=12;" vertex="1" connectable="0" parent="jGJi-CPYWdbejaYZ_Ewa-25">
          <mxGeometry x="0.5" y="49" relative="1" as="geometry">
            <mxPoint x="-40" y="-66" as="offset" />
          </mxGeometry>
        </mxCell>
        <mxCell id="jGJi-CPYWdbejaYZ_Ewa-29" value="" style="endArrow=open;shadow=0;strokeWidth=1;rounded=0;curved=0;endFill=1;edgeStyle=elbowEdgeStyle;elbow=vertical;" edge="1" parent="WIyWlLk6GJQsqaUBKTNV-1" source="jGJi-CPYWdbejaYZ_Ewa-17" target="gJPejOsy9dFF1rbJm-w0-64">
          <mxGeometry x="0.5" y="41" relative="1" as="geometry">
            <mxPoint x="-1941.0800000000004" y="-1260" as="sourcePoint" />
            <mxPoint x="-2239" y="-1803" as="targetPoint" />
            <mxPoint x="-40" y="32" as="offset" />
            <Array as="points">
              <mxPoint x="-2140" y="-1170" />
            </Array>
          </mxGeometry>
        </mxCell>
        <mxCell id="jGJi-CPYWdbejaYZ_Ewa-30" value="N" style="resizable=0;align=left;verticalAlign=bottom;labelBackgroundColor=none;fontSize=12;" connectable="0" vertex="1" parent="jGJi-CPYWdbejaYZ_Ewa-29">
          <mxGeometry x="-1" relative="1" as="geometry">
            <mxPoint x="-15" y="-10" as="offset" />
          </mxGeometry>
        </mxCell>
        <mxCell id="jGJi-CPYWdbejaYZ_Ewa-31" value="N" style="resizable=0;align=right;verticalAlign=bottom;labelBackgroundColor=none;fontSize=12;" connectable="0" vertex="1" parent="jGJi-CPYWdbejaYZ_Ewa-29">
          <mxGeometry x="1" relative="1" as="geometry">
            <mxPoint x="20" y="-10" as="offset" />
          </mxGeometry>
        </mxCell>
        <mxCell id="jGJi-CPYWdbejaYZ_Ewa-32" value="Criar Tarefa" style="text;html=1;resizable=0;points=[];;align=center;verticalAlign=middle;labelBackgroundColor=none;rounded=0;shadow=0;strokeWidth=1;fontSize=12;" vertex="1" connectable="0" parent="jGJi-CPYWdbejaYZ_Ewa-29">
          <mxGeometry x="0.5" y="49" relative="1" as="geometry">
            <mxPoint x="63" y="-69" as="offset" />
          </mxGeometry>
        </mxCell>
      </root>
    </mxGraphModel>
  </diagram>
</mxfile>
